<svg width="109" height="32" viewBox="0 0 109 32" fill="none" xmlns="http://www.w3.org/2000/svg">
<path d="M29.2627 9.27267L16.7708 16.0099C16.189 16.3237 15.4897 16.3297 14.9025 16.026L2.72971 9.72971C2.39691 9.55757 2 9.79913 2 10.1738V14.31C2 14.4906 2.09733 14.6571 2.25463 14.7457L14.8705 21.8512C15.4738 22.191 16.21 22.1945 16.8166 21.8606L29.7411 14.7448C29.9008 14.6569 30 14.4891 30 14.3068V9.71275C30 9.33426 29.5958 9.09301 29.2627 9.27267Z" fill="url(#paint0_linear_2041_129321)"/>
<path d="M29.2627 18.0885L16.7708 24.8257C16.189 25.1395 15.4897 25.1455 14.9025 24.8419L2.72971 18.5456C2.39691 18.3734 2 18.615 2 18.9897V23.1259C2 23.3064 2.09733 23.4729 2.25463 23.5615L14.8705 30.667C15.4738 31.0068 16.21 31.0104 16.8166 30.6764L29.7411 23.5606C29.9008 23.4727 30 23.3049 30 23.1226V18.5286C30 18.1501 29.5958 17.9089 29.2627 18.0885Z" fill="url(#paint1_linear_2041_129321)"/>
<path d="M22.8402 4.65912L12.0891 10.6974C11.7316 10.8982 11.7545 11.4203 12.1282 11.589L15.2494 12.9986C15.8218 13.2571 16.4823 13.2317 17.0332 12.9301L22.3205 10.0346C22.641 9.85914 22.8402 9.52287 22.8402 9.15752V4.65912Z" fill="url(#paint2_linear_2041_129321)"/>
<path d="M14.0926 2.0621L2.51351 8.50952C2.19652 8.68603 2 9.02039 2 9.38321V13.8864L15.3466 6.36931C15.6532 6.19664 16.028 6.1978 16.3335 6.37238L17.5741 7.08131C17.8804 7.25635 18.2563 7.25703 18.5633 7.08309L22.8409 4.65909L17.9251 2.02971C16.7252 1.38792 15.2814 1.40012 14.0926 2.0621Z" fill="url(#paint3_linear_2041_129321)"/>
<path d="M75.7342 24C74.5466 24 73.4427 23.8197 72.4224 23.459C71.4188 23.0984 70.549 22.599 69.8131 21.961C69.0938 21.3091 68.5669 20.5531 68.2324 19.6931L71.0675 18.6736C71.5192 19.5613 72.1715 20.2618 73.0245 20.775C73.8776 21.2744 74.8394 21.5241 75.9098 21.5241C76.512 21.5241 77.0305 21.4478 77.4654 21.2952C77.917 21.1287 78.2599 20.9068 78.4941 20.6294C78.745 20.352 78.8704 20.0191 78.8704 19.6307C78.8704 19.173 78.7032 18.7984 78.3686 18.5072C78.0508 18.202 77.5658 17.9662 76.9134 17.7997L73.3256 16.8427C71.8704 16.4681 70.7748 15.9064 70.0389 15.1573C69.3029 14.4083 68.9349 13.5275 68.9349 12.515C68.9349 11.6272 69.1942 10.8435 69.7127 10.1638C70.248 9.48418 70.9839 8.95709 71.9206 8.58257C72.874 8.19419 73.9612 8 75.1822 8C76.3029 8 77.3316 8.16645 78.2683 8.49935C79.2049 8.81838 80.0078 9.26918 80.6769 9.85175C81.3626 10.4205 81.8728 11.0932 82.2073 11.87L79.3973 12.9103C79.0293 12.1335 78.4773 11.5371 77.7414 11.1209C77.0054 10.6909 76.1524 10.4759 75.1822 10.4759C74.6135 10.4759 74.1118 10.5592 73.6769 10.7256C73.242 10.8782 72.8991 11.1001 72.6482 11.3914C72.414 11.6688 72.2969 12.0017 72.2969 12.3901C72.2969 12.8201 72.4642 13.2016 72.7987 13.5345C73.1333 13.8535 73.6434 14.1032 74.3292 14.2835L77.7665 15.1782C79.2551 15.5804 80.3674 16.1352 81.1034 16.8427C81.8561 17.5501 82.2324 18.4239 82.2324 19.4642C82.2324 20.352 81.9564 21.1357 81.4045 21.8153C80.8525 22.495 80.0914 23.029 79.1213 23.4174C78.1512 23.8058 77.0221 24 75.7342 24Z" fill="#165DFF"/>
<path d="M40 24V8H50.395V10.5772H42.856V14.6792H49.975V17.2564H42.856V21.4228H50.395V24H40Z" fill="#165DFF"/>
<path d="M84.8721 24V8H87.6454L93.5974 16.1396H92.2747L98.0987 8H100.872V24H97.9494V11.3289L99.0801 11.6081L93.0427 19.7047H92.7014L86.8134 11.6081L87.7734 11.3289V24H84.8721Z" fill="#165DFF"/>
<path d="M60.3665 24C59.2004 24 58.1216 23.7989 57.1304 23.3966C56.1537 22.9944 55.2936 22.4326 54.5502 21.7113C53.8213 20.99 53.2528 20.1439 52.8447 19.173C52.4365 18.202 52.2324 17.1409 52.2324 15.9896C52.2324 14.8383 52.4292 13.7772 52.8228 12.8062C53.231 11.8214 53.7995 10.9753 54.5283 10.2679C55.2718 9.5466 56.1391 8.99176 57.1304 8.60338C58.1216 8.20113 59.2004 8 60.3665 8C61.5327 8 62.575 8.18726 63.4934 8.56177C64.4263 8.93628 65.2135 9.43563 65.8549 10.0598C66.4963 10.6701 66.9555 11.3429 67.2324 12.078L64.5648 13.264C64.2587 12.4872 63.7412 11.8492 63.0123 11.3498C62.2834 10.8366 61.4015 10.58 60.3665 10.58C59.3461 10.58 58.4423 10.8088 57.6552 11.2666C56.8826 11.7243 56.2776 12.3554 55.8403 13.1599C55.4176 13.9645 55.2062 14.9077 55.2062 15.9896C55.2062 17.0715 55.4176 18.0217 55.8403 18.8401C56.2776 19.6446 56.8826 20.2757 57.6552 20.7334C58.4423 21.1912 59.3461 21.42 60.3665 21.42C61.4015 21.42 62.2834 21.1704 63.0123 20.671C63.7412 20.1578 64.2587 19.5128 64.5648 18.736L67.2324 19.922C66.9555 20.6571 66.4963 21.3368 65.8549 21.961C65.2135 22.5713 64.4263 23.0637 63.4934 23.4382C62.575 23.8127 61.5327 24 60.3665 24Z" fill="#165DFF"/>
<defs>
<linearGradient id="paint0_linear_2041_129321" x1="6.13636" y1="12.5341" x2="32.5" y2="21" gradientUnits="userSpaceOnUse">
<stop stop-color="#2544FF"/>
<stop offset="1" stop-color="#009EFF"/>
</linearGradient>
<linearGradient id="paint1_linear_2041_129321" x1="6.13636" y1="21.3499" x2="32.5" y2="29.8159" gradientUnits="userSpaceOnUse">
<stop stop-color="#2544FF"/>
<stop offset="1" stop-color="#009EFF"/>
</linearGradient>
<linearGradient id="paint2_linear_2041_129321" x1="13.5" y1="11.5" x2="24.5" y2="8" gradientUnits="userSpaceOnUse">
<stop stop-color="#55CCF3"/>
<stop offset="1" stop-color="#21E3D8"/>
</linearGradient>
<linearGradient id="paint3_linear_2041_129321" x1="5.5" y1="8.79545" x2="22.5" y2="3" gradientUnits="userSpaceOnUse">
<stop stop-color="#00B6FF"/>
<stop offset="1" stop-color="#0B2ADF"/>
</linearGradient>
</defs>
</svg>
