<svg width="32" height="32" viewBox="0 0 32 32" fill="none" xmlns="http://www.w3.org/2000/svg">
<path d="M29.2627 9.27267L16.7708 16.0099C16.189 16.3237 15.4897 16.3297 14.9025 16.026L2.72971 9.72971C2.39691 9.55757 2 9.79913 2 10.1738V14.31C2 14.4906 2.09733 14.6571 2.25463 14.7457L14.8705 21.8512C15.4738 22.191 16.21 22.1945 16.8166 21.8606L29.7411 14.7448C29.9008 14.6569 30 14.4891 30 14.3068V9.71275C30 9.33426 29.5958 9.09301 29.2627 9.27267Z" fill="url(#paint0_linear_2040_128819)"/>
<path d="M29.2627 18.0885L16.7708 24.8257C16.189 25.1395 15.4897 25.1455 14.9025 24.8419L2.72971 18.5456C2.39691 18.3734 2 18.615 2 18.9897V23.1259C2 23.3064 2.09733 23.4729 2.25463 23.5615L14.8705 30.667C15.4738 31.0068 16.21 31.0104 16.8166 30.6764L29.7411 23.5606C29.9008 23.4727 30 23.3049 30 23.1226V18.5286C30 18.1501 29.5958 17.9089 29.2627 18.0885Z" fill="url(#paint1_linear_2040_128819)"/>
<path d="M22.8402 4.65912L12.0891 10.6974C11.7316 10.8982 11.7545 11.4203 12.1282 11.589L15.2494 12.9986C15.8218 13.2571 16.4823 13.2317 17.0332 12.9301L22.3205 10.0346C22.641 9.85914 22.8402 9.52287 22.8402 9.15752V4.65912Z" fill="url(#paint2_linear_2040_128819)"/>
<path d="M14.0926 2.0621L2.51351 8.50952C2.19652 8.68603 2 9.02039 2 9.38321V13.8864L15.3466 6.36931C15.6532 6.19664 16.028 6.1978 16.3335 6.37238L17.5741 7.08131C17.8804 7.25635 18.2563 7.25703 18.5633 7.08309L22.8409 4.65909L17.9251 2.02971C16.7252 1.38792 15.2814 1.40012 14.0926 2.0621Z" fill="url(#paint3_linear_2040_128819)"/>
<defs>
<linearGradient id="paint0_linear_2040_128819" x1="6.13636" y1="12.5341" x2="32.5" y2="21" gradientUnits="userSpaceOnUse">
<stop stop-color="#2544FF"/>
<stop offset="1" stop-color="#009EFF"/>
</linearGradient>
<linearGradient id="paint1_linear_2040_128819" x1="6.13636" y1="21.3499" x2="32.5" y2="29.8159" gradientUnits="userSpaceOnUse">
<stop stop-color="#2544FF"/>
<stop offset="1" stop-color="#009EFF"/>
</linearGradient>
<linearGradient id="paint2_linear_2040_128819" x1="13.5" y1="11.5" x2="24.5" y2="8" gradientUnits="userSpaceOnUse">
<stop stop-color="#55CCF3"/>
<stop offset="1" stop-color="#21E3D8"/>
</linearGradient>
<linearGradient id="paint3_linear_2040_128819" x1="5.5" y1="8.79545" x2="22.5" y2="3" gradientUnits="userSpaceOnUse">
<stop stop-color="#00B6FF"/>
<stop offset="1" stop-color="#0B2ADF"/>
</linearGradient>
</defs>
</svg>
